<svg xmlns="http://www.w3.org/2000/svg" viewBox="0 0 100 100">
  <rect width="100" height="100" fill="#0a0a0a"/>
  <path d="M45 15 Q50 10, 55 15 Q60 20, 58 30 Q56 40, 50 45 Q44 50, 40 55 Q36 60, 36 66 Q36 72, 40 76 Q44 80, 50 80 Q56 80, 60 76 Q64 72, 64 66 Q64 60, 60 56 Q56 52, 50 52 Q44 52, 40 56 L40 30 L40 25 Q40 20, 45 15 Z M50 60 Q54 60, 57 63 Q60 66, 60 70 Q60 74, 57 77 Q54 80, 50 80 Q46 80, 43 77 Q40 74, 40 70 Q40 66, 43 63 Q46 60, 50 60 Z" fill="#FF6B35" stroke="#FF6B35" stroke-width="1"/>
</svg>
